<svg xmlns="http://www.w3.org/2000/svg" viewBox="0 0 21 22.04"><g id="check-in"><path d="M19.25,2.07H16.41V.69a.66.66,0,1,0-1.31,0V2.07H11.16V.69a.66.66,0,1,0-1.31,0V2.07H5.91V.69a.66.66,0,1,0-1.31,0V2.07H1.75A1.8,1.8,0,0,0,0,3.9V20.2A1.79,1.79,0,0,0,1.75,22h17.5A1.79,1.79,0,0,0,21,20.2V3.9A1.79,1.79,0,0,0,19.25,2.07Zm.44,18.14a.45.45,0,0,1-.44.46H1.75a.45.45,0,0,1-.44-.46V3.9a.45.45,0,0,1,.44-.46H4.59V4.82a.66.66,0,1,0,1.31,0V3.44H9.85V4.82a.66.66,0,1,0,1.31,0V3.44h3.94V4.82a.66.66,0,1,0,1.31,0V3.44h2.84a.45.45,0,0,1,.44.46V20.2Z"/><rect x="4.59" y="8.27" width="2.63" height="2.07"/><rect x="4.59" y="11.71" width="2.63" height="2.07"/><rect x="4.59" y="15.15" width="2.63" height="2.07"/><rect x="9.19" y="15.15" width="2.63" height="2.07"/><rect x="9.19" y="11.71" width="2.63" height="2.07"/><rect x="9.19" y="8.27" width="2.63" height="2.07"/><rect x="13.78" y="15.15" width="2.63" height="2.07"/><rect x="13.78" y="11.71" width="2.63" height="2.07"/><rect x="13.78" y="8.27" width="2.63" height="2.07"/></g></svg>
