<svg xmlns="http://www.w3.org/2000/svg" viewBox="0 0 16.98 15.01"><defs><style>.cls-1{fill:#000;}</style></defs><title>Ресурс 3social</title><g id="Слой_2"
                                                                                                                                              data-name="Слой 2"><g id="social-twitter"><g id="W6EeEF"><path id="social-twitter-2" data-name="social-twitter" class="cls-1" d="M10.95.16a3.1,3.1,0,0,1,3.58,1.18c.67-.23,1.33-.48,2-.71a2.35,2.35,0,0,1-.86,1.77A1.55,1.55,0,0,0,17,1.9a2.93,2.93,0,0,1-1.56,2C15.19,10.68,12.25,15.15,5.34,15H4.9c-.41,0-4.16-.46-4.9-1.89a6.14,6.14,0,0,0,4.69-1.18c-1-.3-2.68-.48-3-2.95a2,2,0,0,0,1.19.12C1.7,8.26.37,7.54.45,5.34a1.9,1.9,0,0,0,1.34.47c-.7-.24-2-3.36-.89-5C2.71,2.72,4.63,4.47,8,4.64,8.25,2.34,9.18.81,10.95.16Z"/></g></g></g></svg>
